<svg height="14.646" viewBox="0 0 16.448 14.646" width="16.448" xmlns="http://www.w3.org/2000/svg"><path d="m6.41 14.646a1.831 1.831 0 0 1 0-3.662 1.831 1.831 0 0 1 0 3.662zm6.408 0a1.831 1.831 0 0 1 0-3.662 1.831 1.831 0 0 1 0 3.662zm-11.935-12.886a.881.881 0 0 1 0-1.76h1.054a1.761 1.761 0 0 1 1.719 1.379l1.144 5.164a1.761 1.761 0 0 0 1.722 1.379h6.878l1.32-5.282h-8.556a.881.881 0 0 1 0-1.759h8.554a1.76 1.76 0 0 1 1.708 2.188l-1.32 5.28a1.76 1.76 0 0 1 -1.706 1.333h-6.878a3.521 3.521 0 0 1 -3.437-2.757l-1.148-5.165z" fill="#1f1b1a" transform="translate(-.031)"/></svg>